<svg width="63" height="81" viewBox="0 0 63 81" fill="none" xmlns="http://www.w3.org/2000/svg">
<path d="M39.6165 27.2275C39.6323 27.5272 39.656 27.8348 39.7826 28.1109C39.9724 28.5526 40.3441 28.8602 40.8107 28.9706C41.2616 29.0732 41.744 28.8681 42.0208 28.5131C42.2186 28.2529 42.3214 27.9058 42.3372 27.5824C42.353 27.3695 42.353 27.1565 42.3451 26.9357C42.3925 26.628 42.4242 26.3125 42.4084 25.997C42.3925 25.6342 42.3451 25.2241 42.1869 24.8928C42.1236 24.7508 42.0287 24.6246 41.918 24.5063L41.8626 24.4117C41.6096 24.0725 41.1746 23.8595 40.7475 23.9384C40.3125 24.0173 39.9961 24.3249 39.8063 24.7114C39.5137 25.2951 39.4899 26.0601 39.5453 26.699C39.5532 26.8726 39.5769 27.054 39.6165 27.2275Z" fill="#242647"/>
<path d="M22.0982 24.5141L22.0428 24.4195C21.7897 24.0803 21.3547 23.8674 20.9277 23.9462C20.4927 24.0251 20.1763 24.3327 19.9865 24.7192C19.6938 25.3029 19.6701 26.068 19.7255 26.7068C19.7413 26.8804 19.765 27.0618 19.8046 27.2353C19.8204 27.535 19.8441 27.8426 19.9707 28.1187C20.1605 28.5604 20.5322 28.868 20.9988 28.9784C21.4496 29.081 21.9321 28.8759 22.2089 28.521C22.4066 28.2607 22.5095 27.9136 22.5253 27.5902C22.5411 27.3773 22.5411 27.1643 22.5332 26.9435C22.5806 26.6359 22.6123 26.3204 22.5965 26.0049C22.5806 25.642 22.5332 25.2319 22.375 24.9006C22.2959 24.7508 22.2089 24.6246 22.0982 24.5141Z" fill="#242647"/>
<path d="M31.2647 34.7208C32.2375 34.7523 33.234 34.5709 34.0882 34.0898C34.7921 33.6954 35.8123 33.1591 35.9942 32.3072C36.0338 32.1258 35.8598 32.0154 35.7095 32.0154C35.3062 32.0154 34.9898 32.1968 34.6339 32.3703C34.2938 32.536 33.9458 32.67 33.5741 32.7647C32.9018 32.9461 32.2058 33.0881 31.5019 33.0723C30.8534 33.0565 30.2207 32.883 29.6512 32.5833C29.0739 32.2757 28.7575 31.834 28.3383 31.3607C27.7372 30.6824 26.5351 31.2818 26.9226 32.1731C27.2785 33.0092 28.109 33.6402 28.884 34.0582C29.6038 34.4684 30.45 34.6971 31.2647 34.7208Z" fill="#242647"/>
<path d="M62.4496 63.5888C61.8248 63.1155 61.0339 63.4073 60.4882 63.8648C59.4046 64.7798 58.5267 66.0418 57.9415 67.3195C57.6093 68.0373 57.3641 68.7866 57.1822 69.5596C57.0794 69.9697 57.0478 70.372 57.0398 70.7663C55.7981 70.7033 54.5485 70.7111 53.3068 70.6402C51.7566 70.5613 50.2144 70.443 48.6721 70.301C47.1298 70.159 45.5876 70.0013 44.0532 69.812C42.9539 69.6779 41.8387 69.5043 40.7235 69.4728C40.9213 68.7945 41.0004 68.0767 40.9134 67.3274C40.9054 67.2328 40.8817 67.1618 40.8501 67.0829C41.3167 67.2091 41.7992 67.2801 42.2183 67.1223C42.4161 67.1618 42.6296 67.1302 42.8194 67.0119L42.8273 67.004C42.9697 66.9883 43.12 66.933 43.2544 66.8226C44.6227 65.7263 45.9672 64.5984 47.3117 63.4783C48.5456 62.4608 49.898 61.4986 51.0053 60.3312C52.0255 59.2585 52.2865 58.0044 52.3103 56.561C52.3261 55.3148 52.4842 53.9266 52.3656 52.6409C52.4842 52.1835 52.5001 51.7339 52.3023 51.3868C52.1521 51.1187 51.8199 51.0319 51.5905 51.1818C51.5352 49.9671 51.4798 48.7445 51.4165 47.5299C51.3849 46.9383 51.3454 46.3467 51.2979 45.7552C51.2584 45.3135 51.2504 44.8008 51.1239 44.3512L51.1318 44.3433C51.8357 43.6019 50.5624 42.6475 49.8664 43.3811C48.4269 44.9033 46.9875 46.4177 45.548 47.94C45.1684 48.3423 44.7888 48.7367 44.4171 49.1468C44.0849 49.5096 43.7132 50.0696 43.294 50.3378C42.8194 50.6454 42.2421 50.4009 41.7517 50.2826C41.2139 50.1564 40.6761 50.0381 40.1462 49.9119C39.3553 49.7305 38.5644 49.5491 37.7735 49.3676C37.4808 48.7367 37.1882 48.1057 36.8956 47.4747C36.682 47.0093 36.4764 46.5439 36.247 46.0865C36.2075 45.9997 36.16 45.9208 36.1205 45.8341C40.6207 44.7219 44.6543 42.7027 47.9128 40.0131C53.0063 35.8091 56.2173 29.925 56.2173 23.4021C56.2173 16.8792 53.0142 10.9951 47.9128 6.79111C42.8115 2.5792 35.8199 0 28.1087 0C20.3974 0 13.3979 2.5792 8.30447 6.79111C3.21106 10.9951 0 16.8792 0 23.4021C0 29.925 3.20315 35.8091 8.30447 40.0131C12.3697 43.3732 17.6529 45.6921 23.5372 46.4887C22.691 48.3344 22.0345 50.2589 21.2594 52.1362C20.8877 53.0511 20.5002 53.9582 20.1047 54.8573C19.6855 55.8275 19.3217 56.9002 18.776 57.8072C18.4597 58.3357 18.6653 59.0377 19.3376 59.1323C20.2313 59.2585 20.9747 59.8185 21.8131 60.1262C22.0108 60.1971 22.2085 60.2602 22.4142 60.3155C22.3509 60.9465 22.2797 61.5774 22.2243 62.2084C22.0741 63.7386 21.8843 65.2924 22.0345 66.8305C22.3193 69.7883 24.1937 71.8154 26.8828 72.9196C28.2431 73.4796 29.7537 73.9292 31.2881 74.1422C31.6361 74.3078 31.9841 74.4656 32.3321 74.6312C33.6766 75.2622 35.0211 75.8774 36.3657 76.5084C39.1022 77.7862 41.8387 79.0718 44.5199 80.4522C44.6464 80.5153 44.7888 80.531 44.9311 80.5153C45.0893 80.8544 45.4452 81.0753 45.8802 80.8386C47.2089 80.1288 48.245 78.993 48.8461 77.6048C49.3444 76.4532 49.8426 74.363 48.854 73.3298C47.5807 72.0047 46.0147 73.7794 45.3661 74.8284C44.686 75.9169 44.2668 77.1158 44.0849 78.362C41.7675 77.2656 39.4581 76.1614 37.1249 75.0887C36.4289 74.7653 35.733 74.4498 35.037 74.1343C35.377 74.0791 35.7092 74.0081 36.0414 73.9134C37.8209 73.3929 39.4106 72.1703 40.2727 70.577C41.4354 70.9635 42.6771 71.1371 43.8713 71.3106C45.461 71.5393 47.0508 71.7365 48.6484 71.8864C51.7092 72.1782 54.8965 72.541 57.9731 72.3912C58.0364 72.3912 58.0997 72.3675 58.1629 72.3438C58.3765 72.7067 58.9617 72.8881 59.3097 72.5647C60.3379 71.5866 61.2791 70.6165 61.9514 69.3466C62.592 68.1319 62.9716 66.7753 62.9953 65.4029C63.0112 64.7719 63.0191 64.0226 62.4496 63.5888ZM50.8787 52.0415C51.0527 52.0573 51.1951 52.0021 51.3137 51.9153C51.3058 52.0336 51.29 52.144 51.2663 52.2623C51.2109 52.5542 51.0923 52.8381 50.9262 53.0905C50.6098 53.5874 50.1115 54.0291 49.5263 54.1553C48.6721 54.3446 49.1704 53.3035 49.4156 52.9565C49.7556 52.4911 50.2539 51.9863 50.8787 52.0415ZM43.6499 63.573L43.9504 59.2585C44.0532 57.823 44.1561 56.3796 44.2431 54.9362C44.3142 53.8004 44.5041 52.57 44.4171 51.4105C45.1368 50.8268 45.7537 50.046 46.3864 49.3913C47.6677 48.0426 48.941 46.6938 50.2144 45.345C50.2223 45.4318 50.2223 45.5265 50.2302 45.6132C50.2539 46.2442 50.2935 46.8673 50.3172 47.4983C50.3567 48.6026 50.3567 49.691 50.3251 50.7874C49.4788 50.953 48.7591 51.5604 48.2687 52.2939C47.6677 53.201 47.3671 54.6523 48.5139 55.299C49.4551 55.8354 50.5544 55.2359 51.2663 54.5497C51.2109 56.4269 51.1951 58.2963 49.6449 59.6529C47.7309 61.3329 45.6509 62.8473 43.6262 64.409C43.6341 64.0936 43.6341 63.8096 43.6499 63.573ZM46.2282 76.7608C46.4418 76.2245 46.7028 75.7118 47.0191 75.2385C47.1457 75.0492 47.2801 74.8442 47.4462 74.6785C47.7547 74.3709 47.7468 74.3394 47.8417 74.7259C48.0473 75.5383 47.6281 76.6583 47.2564 77.3603C46.8847 78.0622 46.3548 78.6459 45.7141 79.1113C45.7853 78.3068 45.9277 77.518 46.2282 76.7608ZM35.1951 46.607C35.3691 47.0882 35.5748 47.5535 35.7646 48.0268C35.899 48.3502 36.0256 48.6736 36.16 48.9969C35.4561 48.8392 34.7522 48.6814 34.0483 48.5237C32.5535 48.2003 31.1141 47.9164 29.6272 47.9479C29.1605 47.8611 28.6939 47.8138 28.2194 47.8296C27.9584 47.8375 27.7132 48.1214 27.6974 48.3659C27.4601 50.8584 27.1596 53.3429 26.7167 55.7959C26.1789 56.2297 25.7359 56.774 25.4196 57.3892C25.1981 57.823 24.9688 58.4225 25.0083 58.9509C24.8027 58.943 24.597 58.9351 24.3993 58.9115C24.1541 58.8878 23.909 58.8484 23.6717 58.8089C23.7587 58.1306 23.8457 57.4444 23.9327 56.774C24.3598 53.406 25.1032 50.0617 25.4117 46.6859C26.3054 46.7569 27.2149 46.7963 28.1324 46.7963C30.513 46.7963 32.8145 46.5518 35.0211 46.0865C35.0686 46.2679 35.1398 46.4414 35.1951 46.607ZM28.4487 56.6872C28.9154 56.4821 29.8566 56.2692 30.2678 56.7188C30.7424 57.2472 29.8565 57.8861 29.4611 58.0833C28.6227 58.4935 27.6578 58.7537 26.685 58.8799C26.7641 58.596 26.8353 58.3041 26.9777 58.0439C27.294 57.4444 27.8239 56.9554 28.4487 56.6872ZM2.03262 23.4021C2.03262 17.5575 4.88777 12.2492 9.60155 8.34494C14.3074 4.45642 20.8561 2.01919 28.1166 2.01919C35.3691 2.01919 41.9257 4.45642 46.6316 8.34494C51.3453 12.2413 54.2005 17.5575 54.2005 23.4021C54.2005 29.2467 51.3453 34.555 46.6316 38.4593C41.9257 42.3478 35.377 44.785 28.1166 44.785C20.864 44.785 14.3074 42.3478 9.60155 38.4593C4.88777 34.5629 2.03262 29.2467 2.03262 23.4021ZM22.6119 58.5565C22.3983 58.4856 22.1848 58.4067 21.9713 58.3199C21.4967 58.1227 21.0301 57.8782 20.5476 57.7047C20.8244 57.0185 21.1487 56.3402 21.4255 55.6697C21.8289 54.6838 22.2243 53.69 22.6119 52.6962C23.3711 50.7322 24.1621 48.7603 24.6761 46.7253C24.684 46.6938 24.6761 46.6622 24.684 46.6307C24.6999 46.6307 24.7236 46.6386 24.7394 46.6386C23.6796 49.9119 23.2525 53.4297 22.8096 56.8213C22.7463 57.3971 22.6752 57.9729 22.6119 58.5565ZM39.2841 67.5719C39.5688 70.0328 37.3938 71.9652 35.1635 72.4779C34.0009 72.7461 32.7512 72.7619 31.5095 72.6199C31.3751 72.5647 31.2406 72.5095 31.0983 72.4543C30.3785 72.1861 29.8091 72.0205 29.0498 72.0205C28.9866 72.0205 28.9233 72.0441 28.8679 72.0757C28.251 71.8943 27.6499 71.6734 27.0805 71.4368C25.989 70.9793 24.953 70.3247 24.257 69.3545C23.474 68.2581 23.2604 66.8778 23.213 65.5685C23.1576 63.9121 23.2762 62.2321 23.4582 60.5679C23.8457 60.631 24.2332 60.6862 24.6129 60.7019C25.3009 60.7335 26.0128 60.7177 26.7246 60.6388C26.6613 60.8912 26.6059 61.1358 26.5427 61.3487C26.3529 61.9876 26.1472 62.6265 26.7404 63.1234C27.3336 63.6282 28.4567 63.7228 29.2001 63.9279C30.1017 64.1803 31.0034 64.4169 31.8971 64.6536C33.6529 65.1268 35.4087 65.5922 37.1566 66.0654C38.0107 66.2942 38.8649 66.5229 39.7191 66.7516L39.7349 66.7595C39.4502 66.8857 39.2366 67.1697 39.2841 67.5719ZM38.2638 64.5352C36.6979 64.1172 35.1319 63.7071 33.5659 63.289C32.0632 62.8947 30.5684 62.4924 29.0656 62.1138C28.7097 62.0191 28.338 61.8929 27.9663 61.8298L27.9742 61.7115C27.99 61.5301 28.0138 61.3566 28.0296 61.1831C28.0533 60.9307 28.0928 60.6625 28.1087 60.4022C28.8205 60.2366 29.5165 60.0078 30.1492 59.7002C31.5886 59.014 32.8303 57.1841 31.6044 55.7092C30.8214 54.7627 29.5244 54.6523 28.3855 54.9599C28.6544 52.988 28.8442 51.0082 28.8996 49.0127C29.4453 48.9575 29.991 48.926 30.5525 48.9733L30.5921 48.9654C31.0034 49.0679 31.4146 49.1784 31.818 49.2888C32.9252 49.5964 34.0325 49.8882 35.1398 50.1722C35.6934 50.3141 36.2391 50.4482 36.7928 50.5902C36.8323 50.6849 36.8639 50.7716 36.9035 50.8663C37.1487 51.4657 37.8921 51.3474 38.1689 50.9373C39.3078 51.2212 40.4388 51.4973 41.5777 51.7812C42.0127 51.8916 42.4477 51.9942 42.859 52.0021C42.7562 52.8145 42.7403 53.6505 42.6692 54.4393C42.5584 55.8275 42.4556 57.2157 42.3528 58.596C42.2579 59.929 42.1551 61.2698 42.0602 62.6028C42.0127 63.2733 41.9653 63.9358 41.9099 64.6062C41.8862 64.8981 41.8387 65.182 41.7913 65.466C41.4354 65.3398 41.032 65.2767 40.6682 65.182C39.8773 64.9691 39.0706 64.7482 38.2638 64.5352ZM61.7299 65.5054C61.6192 66.5702 61.3107 67.6114 60.8283 68.5658C60.3221 69.5596 59.5391 70.648 58.5584 71.2238C58.4951 71.0976 58.3844 70.9951 58.2578 70.9241C58.3132 70.7269 58.3765 70.5297 58.4239 70.3404C58.5663 69.8041 58.7007 69.2677 58.9064 68.7472C59.3097 67.6902 59.8634 66.6806 60.5515 65.7815C60.8599 65.3792 61.1842 64.8981 61.6192 64.6299L61.722 64.5905L61.7536 64.7482C61.7932 64.9927 61.7536 65.2609 61.7299 65.5054Z" fill="#242647"/>
</svg>
